<svg width="100" height="100" viewBox="0 0 100 100" fill="none" xmlns="http://www.w3.org/2000/svg">
<path d="M72.3306 25C80.137 37.7524 70.2733 58.3009 49.8968 58.3333C30.5068 58.3135 19.876 38.1224 27.4629 25" stroke="#1F1D0D" stroke-width="5"/>
<path d="M50.0001 37.4987L16.6667 22.9154L50.0001 8.33203L83.3334 22.9154L50.0001 37.4987Z" fill="#A435F0" stroke="#1F1D0D" stroke-width="5" stroke-linejoin="round"/>
<path d="M80.8333 37.4987C80.8333 38.8794 81.9525 39.9987 83.3333 39.9987C84.714 39.9987 85.8333 38.8794 85.8333 37.4987H80.8333ZM80.8333 20.832V37.4987H85.8333V20.832H80.8333Z" fill="#1F1D0D"/>
<path d="M12.5 82.293C12.7449 89.7278 14.7376 91.7897 21.875 91.668H78.125C84.4165 90.7994 86.6619 88.9577 87.5 82.293C87.371 69.9489 81.2296 64.2909 64.0625 54.168C59.718 57.2944 56.721 58.4174 50 58.8555C44.5407 58.523 41.4704 57.7164 35.9375 54.168C18.343 63.3049 13.0211 69.9008 12.5 82.293Z" fill="#A435F0" stroke="#1F1D0D" stroke-width="5" stroke-linejoin="round"/>
<path d="M50 58.332V91.6654" stroke="#1F1D0D" stroke-width="5" stroke-linejoin="round"/>
</svg>
