<svg width="100" height="100" viewBox="0 0 100 100" fill="none" xmlns="http://www.w3.org/2000/svg">
<path d="M16.6667 54.168H83.3334L77.0834 89.5846H20.8334L16.6667 54.168Z" fill="#A435F0"/>
<path d="M79.0112 52.277H77.0812C75.9537 44.6758 69.6429 38.6743 61.74 37.7528C65.0908 34.6403 67.1804 30.263 67.1804 25.4219C67.1804 15.9985 59.2654 8.33203 49.5371 8.33203C39.8087 8.33203 31.8939 15.9985 31.8939 25.4219C31.8939 30.2632 33.9834 34.6403 37.3341 37.7528C29.4314 38.6743 23.1206 44.6758 21.9929 52.277H20.063C15.4577 52.277 11.9283 56.2345 12.5771 60.6337L16.796 89.5654C16.9715 90.7699 18.0358 91.6654 19.2917 91.6654H79.7825C81.0383 91.6654 82.1029 90.7699 82.2783 89.5654L86.4967 60.637C87.1475 56.2249 83.6079 52.277 79.0112 52.277ZM36.9348 25.4219C36.9348 18.6909 42.5883 13.2148 49.5371 13.2148C56.4858 13.2148 62.1392 18.6909 62.1392 25.4219C62.1392 32.1528 56.4858 37.6289 49.5371 37.6289C42.5883 37.6289 36.9348 32.1528 36.9348 25.4219ZM39.4553 42.5116H59.6187C65.705 42.5116 70.7967 46.7124 71.9679 52.277H27.1062C28.2773 46.7124 33.3694 42.5116 39.4553 42.5116ZM81.5058 59.9508L77.5929 86.7829H21.4811L17.5679 59.9466C17.3505 58.4745 18.5246 57.1599 20.063 57.1599C20.7596 57.1599 78.7196 57.1599 79.0112 57.1599C80.5479 57.1599 81.7242 58.4708 81.5058 59.9508Z" fill="#1F1D0D"/>
<path d="M49.5372 68.5195C44.4317 68.5195 40.2778 71.6349 40.2778 75.4641C40.2778 79.2937 44.4317 82.4087 49.5372 82.4087C54.643 82.4087 58.7963 79.2937 58.7963 75.4641C58.7963 71.6349 54.643 68.5195 49.5372 68.5195ZM49.5372 77.7791C47.8355 77.7791 46.4505 76.7408 46.4505 75.4641C46.4505 74.1874 47.8355 73.1491 49.5372 73.1491C51.2392 73.1491 52.6238 74.1874 52.6238 75.4641C52.6238 76.7408 51.2392 77.7791 49.5372 77.7791Z" fill="#1F1D0D"/>
</svg>
