<svg width="100" height="100" viewBox="0 0 100 100" fill="none" xmlns="http://www.w3.org/2000/svg">
<path d="M91.6666 69.7504V19.4587C91.6666 14.4587 87.5832 10.7504 82.6249 11.167H82.3749C73.6249 11.917 60.3332 16.3754 52.9166 21.042L52.2082 21.5004C50.9999 22.2504 48.9999 22.2504 47.7916 21.5004L46.7499 20.8754C39.3333 16.2504 26.0833 11.8337 17.3333 11.1254C12.3749 10.7087 8.33325 14.4587 8.33325 19.417V69.7504C8.33325 73.7504 11.5833 77.5004 15.5833 78.0004L16.7916 78.1671C25.8333 79.3754 39.7916 83.9587 47.7916 88.3337L47.9583 88.417C49.0833 89.042 50.8749 89.042 51.9583 88.417C59.9583 84.0004 73.9583 79.3754 83.0416 78.1671L84.4166 78.0004C88.4166 77.5004 91.6666 73.7504 91.6666 69.7504Z" stroke="#1F1D0D" stroke-width="5" stroke-linecap="round" stroke-linejoin="round"/>
<path d="M91.6667 19.4564V69.7481C91.6667 73.7481 88.4167 77.4981 84.4167 77.9981L83.0417 78.1647C73.9583 79.3731 58 83.0814 50 87.4981V22.9148C57.4167 18.2481 73.625 11.9148 82.375 11.1648H82.625C87.5833 10.7481 91.6667 14.4564 91.6667 19.4564Z" fill="#A435F0" stroke="#1F1D0D" stroke-width="5" stroke-linecap="round" stroke-linejoin="round"/>
<path d="M32.2917 35.375H22.9167" stroke="#1F1D0D" stroke-width="5" stroke-linecap="round" stroke-linejoin="round"/>
<path d="M35.4168 47.875H22.9167" stroke="#1F1D0D" stroke-width="5" stroke-linecap="round" stroke-linejoin="round"/>
</svg>
