<svg width="30" height="30" viewBox="0 0 30 30" fill="none" xmlns="http://www.w3.org/2000/svg">
<path d="M11.8923 7.60484L11.8921 7.60318C11.881 7.47561 11.8659 7.3503 11.8469 7.22724C11.8058 6.96106 11.9827 6.71154 12.2447 6.6603C12.1937 6.44711 12.1324 6.24047 12.0619 6.04036C11.8135 6.13912 11.5293 6.02446 11.4203 5.77785C11.0955 5.04368 10.6395 4.40836 10.1435 3.87126C9.95929 3.67178 9.96838 3.36261 10.1616 3.17422C9.51361 2.54521 8.84838 2.07986 8.35107 1.77449C8.21552 2.00823 7.91751 2.09254 7.67899 1.96226C7.48565 1.85667 7.36397 1.80015 7.34621 1.7921L7.34003 1.78929L7.34005 1.78925L7.32851 1.78404C7.32071 1.78066 7.31303 1.7771 7.30549 1.77338C7.29731 1.77141 7.28914 1.76922 7.28098 1.76682C7.25666 1.75966 7.23176 1.75476 7.20661 1.75217C7.18942 1.7504 7.17253 1.74778 7.15597 1.74436C7.13956 1.74844 7.12279 1.75173 7.10569 1.75418L7.09319 1.75617L7.08897 1.7569L7.08897 1.75688C6.97139 1.77639 6.8564 1.79708 6.74396 1.81887C6.47609 1.87078 6.21676 1.69842 6.15993 1.43279C6.01064 1.46798 5.86581 1.50515 5.72532 1.54411C5.80387 1.8031 5.66163 2.07879 5.40318 2.16391C4.64356 2.41409 4.04167 2.71822 3.56547 3.0338C3.34066 3.18279 3.03945 3.12623 2.88341 2.90905C2.25236 3.4022 1.85957 3.90834 1.61966 4.30955C1.8516 4.4288 1.95453 4.7092 1.84962 4.95219C1.78458 5.10283 1.75913 5.19819 1.75524 5.21342L1.75273 5.22435C1.75105 5.23213 1.74921 5.23982 1.7472 5.24743C1.74677 5.25528 1.74616 5.26317 1.74535 5.27108C1.74296 5.29467 1.74253 5.31839 1.74406 5.342C1.7451 5.35808 1.74537 5.37403 1.7449 5.38982C1.75076 5.40449 1.75599 5.41956 1.76053 5.43503L1.76402 5.44634L1.76428 5.44712C1.85061 5.715 1.93831 5.97962 2.02732 6.24103C2.11606 6.50165 1.9774 6.78479 1.71751 6.8747C1.98353 7.63124 2.26062 8.36088 2.54764 9.06462C2.80157 8.95939 3.09313 9.07895 3.19987 9.33263C3.88113 10.9516 4.61515 12.4269 5.38661 13.772C5.52345 14.0106 5.44186 14.3146 5.20455 14.4528C6.2449 16.2116 7.34983 17.7466 8.4846 19.0879C8.69255 18.9091 9.00624 18.9311 9.18707 19.138C9.55587 19.56 9.92737 19.9616 10.3004 20.3438C10.4922 20.5405 10.4894 20.8548 10.2947 21.0479C10.8697 21.6176 11.4474 22.1433 12.0238 22.6288C12.1985 22.4175 12.5112 22.3862 12.7244 22.5595C14.1202 23.6937 15.5014 24.5915 16.8054 25.3079C17.0461 25.4402 17.1348 25.7416 17.005 25.983C19.0482 27.0581 20.8826 27.6987 22.2645 28.1159C22.3422 27.8523 22.6184 27.7007 22.8827 27.777C23.174 27.861 23.4398 27.9347 23.6794 28.001L23.6799 28.0011L23.68 28.0012L23.7181 28.0117C23.7441 28.0189 23.7691 28.028 23.7929 28.0389C23.8189 28.0418 23.8451 28.0468 23.8711 28.054C23.8813 28.0568 23.8914 28.0596 23.9014 28.0624C23.9716 28.0818 24.0392 28.1006 24.1034 28.1188C24.159 28.1345 24.2097 28.159 24.2544 28.1904C24.3102 28.1884 24.3672 28.1958 24.4234 28.2137L24.4649 28.2271L24.465 28.2271L24.4802 28.2318C24.4906 28.2348 24.5008 28.238 24.5109 28.2416C24.5215 28.2423 24.5322 28.2433 24.5429 28.2447C24.5747 28.2489 24.6069 28.2494 24.6387 28.2463C24.6607 28.2442 24.6825 28.2436 24.704 28.2443C24.7226 28.2335 24.7421 28.2239 24.7625 28.2154L24.7772 28.2089L24.7796 28.2078C24.7855 28.2051 24.8834 28.1601 25.0434 28.0623C25.2721 27.9225 25.5688 27.9883 25.7178 28.2078C25.8277 28.1257 25.9462 28.0313 26.0706 27.9237C25.8878 27.7279 25.8916 27.4209 26.0823 27.2297C26.4775 26.8333 26.9078 26.299 27.2892 25.5958C27.4185 25.3574 27.7135 25.2663 27.9539 25.3877C28.1983 24.8656 28.4137 24.2688 28.5773 23.5893C28.3125 23.5322 28.1405 23.2736 28.1919 23.0062C28.2134 22.8941 28.2335 22.7798 28.2521 22.6632L28.2523 22.6619L28.2543 22.6483C28.2555 22.6392 28.2569 22.6301 28.2585 22.6211C28.2581 22.612 28.2578 22.6028 28.2579 22.5936C28.2579 22.5661 28.2554 22.5386 28.2503 22.5117C28.2468 22.4932 28.2443 22.4748 28.2429 22.4565C28.2333 22.4408 28.2245 22.4245 28.2165 22.4074L28.2106 22.3954C28.2021 22.3791 28.151 22.2819 28.0508 22.1274C27.9042 21.9013 27.9636 21.601 28.1819 21.447C28.0977 21.3366 28.0015 21.217 27.8926 21.0907C27.6942 21.2728 27.3856 21.2652 27.1965 21.0709C26.7962 20.6598 26.2663 20.2043 25.5859 19.7816C25.355 19.6383 25.2816 19.3374 25.4182 19.1043C24.9041 18.8211 24.3197 18.5601 23.6589 18.3445C23.5809 18.6041 23.3093 18.7549 23.0468 18.6823C22.9363 18.6517 22.8235 18.6224 22.7087 18.5945L22.7026 18.5931L22.7026 18.593L22.6928 18.5907C22.6863 18.5891 22.6797 18.5875 22.6733 18.5858C22.6666 18.5852 22.66 18.5844 22.6533 18.5835C22.6333 18.5809 22.6132 18.5798 22.5931 18.5801C22.5794 18.5803 22.5659 18.58 22.5525 18.5791C22.5397 18.583 22.5266 18.5863 22.5132 18.5891L22.5034 18.5913L22.4937 18.5938C22.4871 18.5955 22.4806 18.5971 22.4741 18.5985C22.4679 18.6011 22.4616 18.6035 22.4553 18.6059C22.4364 18.6129 22.4181 18.6212 22.4004 18.6308C22.3884 18.6374 22.3763 18.6433 22.3641 18.6488C22.3545 18.6582 22.3444 18.6672 22.3339 18.6759L22.3263 18.6824L22.3225 18.6857L22.3225 18.6857C22.2615 18.7378 22.1996 18.7899 22.1369 18.8421C21.9654 18.9846 21.7267 18.9931 21.5483 18.8792C21.618 19.0788 21.5551 19.3089 21.3772 19.4431C20.9843 19.7396 20.5786 20.0246 20.1872 20.2777C19.9553 20.4276 19.6457 20.3612 19.4958 20.1293C19.4943 20.127 19.4929 20.1248 19.4914 20.1225C19.2116 20.2903 18.9469 20.4347 18.7095 20.5466C18.7143 20.5586 18.7186 20.5707 18.7226 20.5832C18.8057 20.8465 18.6597 21.1274 18.3964 21.2106C18.2961 21.2422 18.1946 21.2681 18.095 21.2838C17.9936 21.2998 17.8897 21.2842 17.7975 21.2391C17.6068 21.1458 17.419 21.0496 17.2343 20.9508C16.9908 20.8205 16.899 20.5175 17.0293 20.274C17.0305 20.2719 17.0316 20.2697 17.0328 20.2676C16.6044 20.0221 16.1933 19.7622 15.7998 19.4919C15.7985 19.4937 15.7972 19.4956 15.7959 19.4974C15.6335 19.7207 15.3208 19.7701 15.0974 19.6077C14.0107 18.8176 13.0654 17.957 12.2677 17.1131C12.078 16.9124 12.0868 16.596 12.2875 16.4063C12.289 16.4049 12.2905 16.4035 12.2919 16.4021C11.2067 15.1969 10.4349 14.0524 9.99799 13.241C9.99236 13.2438 9.98665 13.2465 9.98087 13.2492C9.72924 13.3629 9.43305 13.2511 9.31932 12.9995C9.20087 12.7374 9.10787 12.4817 9.08323 12.2754C9.06482 12.1237 9.09106 11.9745 9.12266 11.8543C9.18649 11.6115 9.41831 11.4575 9.66062 11.4843C9.49444 11.3292 9.45057 11.0749 9.5689 10.8694C9.78521 10.4939 10.0653 10.0706 10.3848 9.63424C10.5479 9.41143 10.8608 9.36304 11.0836 9.52616C11.0854 9.5275 11.0872 9.52886 11.0891 9.53023C11.2695 9.2972 11.4601 9.0621 11.6575 8.83023C11.6558 8.82875 11.6541 8.82727 11.6524 8.82576C11.447 8.64125 11.43 8.32512 11.6145 8.11967C11.6689 8.05909 11.7237 7.99891 11.7788 7.9392L11.8923 7.60484ZM11.8923 7.60484L11.893 7.6139C11.8939 7.62617 11.8951 7.63829 11.8968 7.65028M11.8923 7.60484L11.8968 7.65028M11.8968 7.65028C11.8948 7.6622 11.8932 7.67429 11.892 7.68652C11.8902 7.70461 11.8873 7.72258 11.8833 7.74032C11.8819 7.74626 11.8807 7.75221 11.8796 7.75814C11.8775 7.76384 11.8756 7.76959 11.8738 7.7754L11.8709 7.78404L11.8679 7.79261C11.8637 7.80417 11.86 7.81577 11.8567 7.82742C11.85 7.83749 11.8436 7.84788 11.8375 7.85858C11.8286 7.87439 11.8187 7.88964 11.8078 7.90424C11.8042 7.90912 11.8006 7.91405 11.7972 7.91903C11.793 7.92341 11.7889 7.92789 11.7849 7.93245L11.779 7.93896L11.8968 7.65028Z" fill="#A435F0" stroke="#1F1D0D" stroke-linecap="round" stroke-linejoin="round" stroke-dasharray="2 4 6 8"/>
</svg>
