<svg width="32" height="32" viewBox="0 0 32 32" fill="none" xmlns="http://www.w3.org/2000/svg">
<path d="M23.5581 27.3619L23.4843 27.245L23.2443 26.8634L23.2381 26.8449L21.1581 23.5342H10.8443L8.77046 26.8449L8.7643 26.8634L8.52429 27.245L8.45045 27.3619C8.27812 27.6819 8.19812 28.0265 8.19812 28.3896V29.1096C8.19812 29.4911 8.50581 29.7988 8.88739 29.7988H23.1151C23.4966 29.7988 23.8105 29.4911 23.8105 29.1096V28.3896C23.8105 28.0265 23.7243 27.6819 23.5581 27.3619Z" fill="#A435F0"/>
<path opacity="0.07" d="M23.4843 27.2449H8.52432L8.76432 26.8634L8.77048 26.845L10.8443 23.5342H21.1582L23.2382 26.845L23.2443 26.8634L23.4843 27.2449Z" fill="white"/>
<path d="M29.1089 2.19922H2.89097C1.97428 2.19922 1.23111 2.96386 1.23111 3.90711V23.5756C1.23111 24.5189 1.97427 25.2835 2.89097 25.2835H29.1088C30.0256 25.2835 30.7687 24.5189 30.7687 23.5756V3.90711C30.7687 2.96387 30.0256 2.19922 29.1089 2.19922Z" fill="white"/>
<path opacity="0.04" d="M30.7673 3.91001V23.5777C30.7673 24.5192 30.0227 25.2823 29.1058 25.2823H2.8904C1.97348 25.2823 1.22885 24.5192 1.22885 23.5777V21.3192H14.9581C21.5119 21.3192 26.8227 16.0084 26.8227 9.45463V2.19922H29.1058C30.0227 2.19922 30.7673 2.96233 30.7673 3.91001Z" fill="white"/>
<path d="M25.5569 17.4547C26.2458 17.4547 26.8043 16.8963 26.8043 16.2073C26.8043 15.5184 26.2458 14.96 25.5569 14.96C24.868 14.96 24.3095 15.5184 24.3095 16.2073C24.3095 16.8963 24.868 17.4547 25.5569 17.4547Z" fill="#A435F0"/>
<path opacity="0.04" d="M26.8025 16.2093C26.8025 16.8982 26.2457 17.4551 25.5568 17.4551C25.0286 17.4551 24.5809 17.1278 24.3972 16.6628C24.5349 16.7202 24.6899 16.7489 24.8507 16.7489C25.5396 16.7489 26.0964 16.1864 26.0964 15.4975C26.0964 15.3367 26.0677 15.1817 26.0103 15.0439C26.4753 15.2276 26.8025 15.6812 26.8025 16.2093Z" fill="white"/>
<path d="M15.3249 6.3418L3.85785 11.1529L15.3249 15.3412L26.8043 11.1529L15.3249 6.3418Z" fill="black"/>
<path opacity="0.04" d="M26.8042 11.1528L22.2319 12.8205C22.0473 12.7097 19.032 10.9251 15.3335 10.9251C11.5181 10.9251 8.42887 12.8267 8.42887 12.8267L3.85657 11.1528L5.99197 10.2544L8.07809 11.0174C8.2935 11.0974 8.53347 11.0851 8.74272 10.9743C9.61655 10.5005 12.2319 9.24512 15.3335 9.24512C18.4166 9.24512 21.0258 10.4882 21.912 10.9621C22.1212 11.0728 22.3673 11.0913 22.5827 11.0113L24.6627 10.2544L26.8042 11.1528Z" fill="white"/>
<path d="M15.3311 10.9287C11.515 10.9287 8.42911 12.8272 8.42911 12.8272V18.299H22.2395V12.8272C22.2395 12.8272 19.1472 10.9287 15.3311 10.9287Z" fill="#A435F0"/>
<path opacity="0.04" d="M22.2381 12.8271V18.2979H22.2319C22.0412 18.1871 19.0258 16.4025 15.3335 16.4025C11.635 16.4025 8.61963 18.1871 8.43502 18.2979H8.42886V16.4025H8.43502C8.61963 16.2917 11.635 14.5071 15.3335 14.5071C16.0473 14.5071 16.7427 14.5748 17.3889 14.6856C18.7366 14.9071 19.9612 13.8609 19.9612 12.4948V11.7871C21.3581 12.2856 22.2381 12.8271 22.2381 12.8271Z" fill="white"/>
<path d="M22.2363 18.3015C22.2363 18.3015 19.1448 20.2006 15.3311 20.2006C11.5175 20.2006 8.42593 18.3015 8.42593 18.3015C8.42593 18.3015 11.5175 16.4023 15.3311 16.4023C19.1448 16.4023 22.2363 18.3015 22.2363 18.3015Z" fill="#A435F0"/>
<path opacity="0.04" d="M22.2381 18.3038C22.2381 18.3038 19.1427 20.1992 15.3335 20.1992C11.5181 20.1992 8.42886 18.3038 8.42886 18.3038C8.42886 18.3038 9.06273 17.91 10.1273 17.4854C11.3889 17.9961 13.2535 18.5623 15.3335 18.5623C17.4073 18.5623 19.2719 17.9961 20.5396 17.4854C21.5981 17.91 22.2381 18.3038 22.2381 18.3038Z" fill="white"/>
<path d="M29.1089 1.58398H2.89109C1.63658 1.58398 0.615845 2.62635 0.615845 3.9073V23.5759C0.615845 24.8568 1.63658 25.8992 2.89109 25.8992H8.64124L7.90731 27.0735C7.69066 27.4797 7.58069 27.922 7.58069 28.3878V29.1086C7.58069 29.8298 8.16752 30.4166 8.88868 30.4166H23.117C23.8382 30.4166 24.425 29.8298 24.425 29.1086V28.3878C24.425 27.9217 24.3151 27.4794 24.0783 27.0386C24.0399 26.9769 23.3243 25.8264 23.3696 25.8992H29.1089C30.3634 25.8992 31.3842 24.8568 31.3842 23.5759V3.9073C31.3842 2.62635 30.3634 1.58398 29.1089 1.58398ZM23.0122 27.6528C23.2821 28.1576 23.1667 28.5549 23.1943 29.1086C23.1943 29.1504 23.1588 29.1858 23.1171 29.1858H8.88868C8.84692 29.1858 8.81146 29.1504 8.81146 29.1086V28.3878C8.81146 28.1261 8.87276 27.8788 8.97341 27.687L10.0914 25.8992H21.9185C21.9953 26.0224 23.0804 27.7622 23.0122 27.6528ZM30.1534 23.5759C30.1534 24.1783 29.685 24.6684 29.1089 24.6684H2.89109C2.31506 24.6684 1.84661 24.1783 1.84661 23.5759V3.9073C1.84661 3.30484 2.31506 2.81475 2.89109 2.81475H29.1089C29.685 2.81475 30.1534 3.30484 30.1534 3.9073V23.5759Z" fill="black"/>
<path d="M15.3366 6.8454C15.336 6.84514 15.3355 6.84499 15.3349 6.84473C15.3378 6.84596 15.3405 6.84702 15.3445 6.84874C15.3411 6.84732 15.339 6.84638 15.3366 6.8454ZM15.3691 6.85904C15.3667 6.85806 15.3643 6.85705 15.3619 6.856C15.3608 6.85555 15.3592 6.85491 15.3583 6.85449C15.3619 6.85599 15.3651 6.85739 15.3691 6.85904Z" fill="#292A66"/>
<path d="M26.9623 11.5855C27.1408 11.5239 27.2638 11.3516 27.2638 11.1609C27.27 10.9762 27.1592 10.8039 26.9807 10.7301L15.5038 5.91776C15.3869 5.86856 15.2577 5.86856 15.1469 5.91776L3.68229 10.7301C3.5038 10.8039 3.39304 10.9762 3.3992 11.1609C3.3992 11.3516 3.52228 11.5239 3.70073 11.5855L7.96534 13.1424V18.287C7.96534 18.2932 7.96534 18.2993 7.96534 18.2993C7.96534 18.4778 8.12535 18.6747 8.18691 18.6932C8.31612 18.7732 11.43 20.6624 15.3315 20.6624C19.233 20.6624 22.3469 18.7732 22.4761 18.6932C22.5746 18.644 22.7038 18.4593 22.7038 18.2993V13.1424L25.0977 12.2685V14.5578C24.3777 14.7609 23.8484 15.4255 23.8484 16.207C23.8484 17.1485 24.6177 17.9178 25.5592 17.9178C26.5007 17.9178 27.2638 17.1485 27.2638 16.207C27.2638 15.4255 26.7407 14.7609 26.0208 14.5578V11.9301L26.9623 11.5855ZM15.3315 19.7393C12.7715 19.7393 10.5254 18.8408 9.41152 18.2993C10.5254 17.7639 12.7653 16.8655 15.3315 16.8655C17.8915 16.8655 20.1377 17.7639 21.2515 18.2993C20.1377 18.8408 17.8977 19.7393 15.3315 19.7393ZM21.7807 17.5301C20.63 16.9578 18.193 15.9424 15.3315 15.9424C12.47 15.9424 10.0392 16.9516 8.88843 17.524C8.88843 17.4624 8.88843 13.0932 8.88843 13.0932C11.19 11.8932 13.3869 11.3885 15.3315 11.3885C17.5407 11.3885 19.8977 12.0778 21.7807 13.0932V17.5301ZM22.273 12.3178C21.4976 11.8808 18.71 10.4655 15.3315 10.4655C11.9407 10.4655 9.14691 11.887 8.38996 12.3178L5.12227 11.1239L15.3254 6.84084C15.3292 6.84245 15.3312 6.84332 15.3349 6.84486L15.3326 6.84388C15.3326 6.84388 15.3354 6.84504 15.3366 6.84554C15.3462 6.84955 15.3533 6.85256 15.3619 6.85613C15.3752 6.86168 15.3932 6.86927 15.416 6.87882C15.3998 6.87202 15.3835 6.86522 15.3691 6.85917C15.4063 6.87476 15.4362 6.88735 15.455 6.89519C15.4572 6.89613 15.4586 6.89673 15.4609 6.89771C15.4813 6.90619 15.4899 6.90984 15.4899 6.90984C16.033 7.13757 18.1874 8.04085 25.5407 11.1239C25.4766 11.1474 22.0559 12.3971 22.273 12.3178ZM15.487 6.9086C15.4829 6.90687 15.4759 6.90391 15.4658 6.89974C15.4721 6.90237 15.4803 6.90578 15.487 6.9086ZM26.3408 16.207C26.3408 16.6378 25.99 16.9947 25.5592 16.9947C25.1223 16.9947 24.7715 16.6378 24.7715 16.207C24.7715 15.7754 25.131 15.4193 25.5592 15.4193C25.9827 15.4193 26.3408 15.7639 26.3408 16.207Z" fill="black"/>
</svg>
