<svg width="30" height="30" viewBox="0 0 30 30" fill="none" xmlns="http://www.w3.org/2000/svg">
<path d="M21.6992 7.5C24.0411 11.3257 21.082 17.4903 14.969 17.5C9.15205 17.4941 5.96279 11.4367 8.23887 7.5" stroke="#1F1D0D" stroke-width="1.5"/>
<path d="M15 11.25L5 6.875L15 2.5L25 6.875L15 11.25Z" fill="#A435F0" stroke="#1F1D0D" stroke-width="1.5" stroke-linejoin="round"/>
<path d="M24.25 11.25C24.25 11.6642 24.5858 12 25 12C25.4142 12 25.75 11.6642 25.75 11.25H24.25ZM24.25 6.25V11.25H25.75V6.25H24.25Z" fill="#1F1D0D"/>
<path d="M3.75 24.6875C3.82346 26.918 4.42129 27.5365 6.5625 27.5H23.4375C25.325 27.2394 25.9986 26.6869 26.25 24.6875C26.2113 20.9843 24.3689 19.2869 19.2188 16.25C17.9154 17.1879 17.0163 17.5248 15 17.6562C13.3622 17.5565 12.4411 17.3145 10.7813 16.25C5.5029 18.9911 3.90634 20.9698 3.75 24.6875Z" fill="#A435F0" stroke="#1F1D0D" stroke-width="1.5" stroke-linejoin="round"/>
<path d="M15 17.5V27.5" stroke="#1F1D0D" stroke-width="1.5" stroke-linejoin="round"/>
</svg>
