<svg width="30" height="30" viewBox="0 0 30 30" fill="none" xmlns="http://www.w3.org/2000/svg">
<path d="M9.375 18.5625V20.1875C9.375 20.4375 9.1875 20.625 8.9375 20.625H4.8125C4.5625 20.625 4.375 20.4375 4.375 20.1875V18.5625C4.375 18.3125 4.5625 18.125 4.8125 18.125H8.9375C9.1875 18.125 9.375 18.3125 9.375 18.5625Z" fill="#F5E6FF"/>
<path d="M1.875 10.625V22.375C1.875 23.125 2.5 23.75 3.3125 23.75H26.75C27.5 23.75 28.1875 23.125 28.1875 22.3125V10.625H1.875ZM10.625 20.1875C10.625 21.125 9.875 21.875 8.9375 21.875H4.8125C3.875 21.875 3.125 21.125 3.125 20.1875V18.5625C3.125 17.625 3.875 16.875 4.8125 16.875H8.9375C9.875 16.875 10.625 17.625 10.625 18.5625V20.1875ZM10.625 15.625H3.75C3.4375 15.625 3.125 15.3125 3.125 15C3.125 14.6875 3.4375 14.375 3.75 14.375H10.625C10.9375 14.375 11.25 14.6875 11.25 15C11.25 15.3125 10.9375 15.625 10.625 15.625ZM15 13.125H3.75C3.4375 13.125 3.125 12.8125 3.125 12.5C3.125 12.1875 3.4375 11.875 3.75 11.875H15C15.3125 11.875 15.625 12.1875 15.625 12.5C15.625 12.8125 15.3125 13.125 15 13.125Z" fill="#A435F0"/>
<path d="M28.125 7.6875V9.375H1.875V7.625C1.875 6.875 2.5 6.25 3.3125 6.25H26.75C27.5 6.25 28.125 6.875 28.125 7.6875Z" fill="#F5E6FF"/>
<path d="M26.75 5H3.3125C1.8125 5 0.625 6.1875 0.625 7.6875V10C0.625 9.625 0.875 9.375 1.25 9.375H1.875V7.625C1.875 6.875 2.5 6.25 3.3125 6.25H26.75C27.5 6.25 28.1875 6.875 28.1875 7.6875V9.375H28.8125C29.1875 9.375 29.4375 9.625 29.4375 10V7.625C29.375 6.1875 28.1875 5 26.75 5ZM28.75 10.625H28.125V22.375C28.125 23.125 27.5 23.8125 26.6875 23.8125H3.3125C2.5 23.75 1.875 23.125 1.875 22.375V10.625H1.25C0.875 10.625 0.625 10.375 0.625 10V22.375C0.625 23.8125 1.8125 25 3.3125 25H26.75C28.1875 25 29.4375 23.8125 29.4375 22.3125V10C29.375 10.375 29.125 10.625 28.75 10.625Z" fill="#1F1D0D"/>
<path d="M28.125 9.375H1.875V10.625H28.125V9.375Z" fill="#1F1D0D"/>
<path d="M1.25 10.625H1.875V9.375H1.25C0.875 9.375 0.625 9.625 0.625 10C0.625 10.375 0.875 10.625 1.25 10.625ZM28.75 9.375H28.125V10.625H28.75C29.125 10.625 29.375 10.375 29.375 10C29.375 9.625 29.125 9.375 28.75 9.375Z" fill="#1F1D0D"/>
<path d="M5 18.125V20.625H4.8125C4.5625 20.625 4.375 20.4375 4.375 20.1875V18.5625C4.375 18.3125 4.5625 18.125 4.8125 18.125H5Z" fill="#A435F0"/>
<path d="M5 6.25V9.375H1.875V7.625C1.875 6.875 2.5 6.25 3.3125 6.25H5ZM5 10.625V23.75H3.3125C2.5 23.75 1.875 23.125 1.875 22.375V10.625H5Z" fill="white"/>
<path d="M28.125 10.625V22.375C28.125 23.125 27.5 23.8125 26.6875 23.8125H25.625V10.625H28.125Z" fill="#A435F0"/>
<path d="M28.125 7.6875V9.375H25.625V6.25H26.75C27.5 6.25 28.125 6.875 28.125 7.6875Z" fill="#F5E6FF"/>
<path d="M4.8125 21.875H8.9375C9.875 21.875 10.625 21.125 10.625 20.1875V18.5625C10.625 17.625 9.875 16.875 8.9375 16.875H4.8125C3.875 16.875 3.125 17.625 3.125 18.5625V20.1875C3.125 21.125 3.875 21.875 4.8125 21.875ZM4.375 18.5625C4.375 18.3125 4.5625 18.125 4.8125 18.125H8.9375C9.1875 18.125 9.375 18.3125 9.375 18.5625V20.1875C9.375 20.4375 9.1875 20.625 8.9375 20.625H4.8125C4.5625 20.625 4.375 20.4375 4.375 20.1875V18.5625ZM3.75 13.125H15C15.375 13.125 15.625 12.875 15.625 12.5C15.625 12.125 15.375 11.875 15 11.875H3.75C3.375 11.875 3.125 12.125 3.125 12.5C3.125 12.875 3.375 13.125 3.75 13.125ZM3.75 15.625H10.625C11 15.625 11.25 15.375 11.25 15C11.25 14.625 11 14.375 10.625 14.375H3.75C3.375 14.375 3.125 14.625 3.125 15C3.125 15.375 3.375 15.625 3.75 15.625Z" fill="#1F1D0D"/>
</svg>
