<svg width="30" height="30" viewBox="0 0 30 30" fill="none" xmlns="http://www.w3.org/2000/svg">
<path d="M8.55456 2.61865L9.92552 5.52593C9.96368 5.60683 10.02 5.6768 10.0898 5.72981C10.1595 5.78285 10.2405 5.81732 10.3258 5.83028L13.391 6.29656C13.4892 6.31148 13.5813 6.35488 13.6573 6.42181C13.7331 6.48876 13.7895 6.57658 13.8202 6.67535C13.8508 6.77411 13.8545 6.87989 13.8306 6.98071C13.8068 7.08152 13.7565 7.17335 13.6854 7.24581L11.4671 9.50874C11.3417 9.63673 11.2848 9.82089 11.314 10.0012L11.8377 13.1966C11.8544 13.299 11.8434 13.4042 11.806 13.5003C11.7687 13.5966 11.7063 13.6799 11.6262 13.7408C11.5458 13.8018 11.4509 13.8382 11.352 13.8456C11.2531 13.8531 11.1541 13.8315 11.0663 13.7831L8.32437 12.2741C8.24804 12.2322 8.16312 12.2103 8.07692 12.2103C7.99072 12.2103 7.90581 12.2322 7.82947 12.2741L5.08753 13.7831C4.99974 13.8315 4.90079 13.8531 4.80186 13.8456C4.70293 13.8382 4.60798 13.8018 4.52773 13.7408C4.44748 13.6799 4.38513 13.5966 4.34776 13.5003C4.31038 13.4042 4.29944 13.299 4.31619 13.1966L4.83981 10.0012C4.85438 9.91225 4.84807 9.82095 4.82139 9.73516C4.79471 9.64937 4.74849 9.57166 4.68671 9.50874L2.46839 7.24581C2.39731 7.17335 2.34702 7.08152 2.32322 6.98071C2.29942 6.87989 2.30304 6.77411 2.33369 6.67535C2.36432 6.57658 2.42077 6.48876 2.49661 6.42181C2.57246 6.35488 2.6647 6.31148 2.76288 6.29656L5.82803 5.83028C5.91332 5.81732 5.99433 5.78285 6.06406 5.72981C6.1338 5.6768 6.19016 5.60683 6.22832 5.52593L7.59929 2.61865C7.79597 2.20524 8.35946 2.20524 8.55456 2.61865Z" fill="#A435F0"/>
<path d="M16.1538 10.9609H22.5" stroke="#1F1D0D" stroke-width="1.5" stroke-linecap="round" stroke-linejoin="round"/>
<path d="M13.8462 13.8477H21.9231" stroke="#1F1D0D" stroke-width="1.5" stroke-linecap="round" stroke-linejoin="round"/>
<path d="M12.6923 17.3086H19.6154" stroke="#1F1D0D" stroke-width="1.5" stroke-linecap="round" stroke-linejoin="round"/>
<path d="M5.83879 15.5772C5.46466 21.3864 6.54312 22.809 10.4542 22.5003H13.9157C13.4706 24.4258 13.0006 25.446 11.608 27.1157C14.8427 26.158 16.5085 25.212 19.108 22.5003C24.1183 22.7926 26.2397 22.2646 26.608 17.8849V9.80799C26.3581 6.9048 25.4782 5.90945 21.9927 5.76953H16.2234" stroke="#1F1D0D" stroke-width="1.5" stroke-linecap="round" stroke-linejoin="round"/>
</svg>
