<svg width="30" height="30" viewBox="0 0 30 30" fill="none" xmlns="http://www.w3.org/2000/svg">
<path d="M15 27.5C21.9036 27.5 27.5 21.9036 27.5 15C27.5 8.09644 21.9036 2.5 15 2.5C8.09644 2.5 2.5 8.09644 2.5 15C2.5 21.9036 8.09644 27.5 15 27.5Z" fill="#A435F0" stroke="#1F1D0D" stroke-width="2" stroke-linecap="round" stroke-linejoin="round"/>
<path d="M15.1494 15.9766C15.0619 15.9641 14.9494 15.9641 14.8494 15.9766C12.6494 15.9016 10.8994 14.1016 10.8994 11.8891C10.8994 9.62656 12.7244 7.78906 14.9994 7.78906C17.2619 7.78906 19.0994 9.62656 19.0994 11.8891C19.0869 14.1016 17.3494 15.9016 15.1494 15.9766Z" fill="white" stroke="#1F1D0D" stroke-width="2" stroke-linecap="round" stroke-linejoin="round"/>
<path d="M23.4252 24.2242C21.2002 26.2617 18.2502 27.4992 15.0002 27.4992C11.7502 27.4992 8.80019 26.2617 6.5752 24.2242C6.7002 23.0492 7.4502 21.8992 8.7877 20.9992C12.2127 18.7242 17.8127 18.7242 21.2127 20.9992C22.5502 21.8992 23.3002 23.0492 23.4252 24.2242Z" fill="white" stroke="#1F1D0D" stroke-width="2" stroke-linecap="round" stroke-linejoin="round"/>
<path d="M27.5 2.5L2.5 27.5" stroke="#1F1D0D" stroke-width="1.5" stroke-linecap="round" stroke-linejoin="round"/>
</svg>
