<svg width="30" height="30" viewBox="0 0 30 30" fill="none" xmlns="http://www.w3.org/2000/svg">
<path d="M5 16.25H25L23.125 26.875H6.25L5 16.25Z" fill="#A435F0"/>
<path d="M23.7034 15.6835H23.1244C22.7861 13.4031 20.8929 11.6027 18.522 11.3262C19.5272 10.3925 20.1541 9.07929 20.1541 7.62696C20.1541 4.79995 17.7796 2.5 14.8611 2.5C11.9426 2.5 9.56817 4.79995 9.56817 7.62696C9.56817 9.07934 10.195 10.3925 11.2002 11.3262C8.82944 11.6027 6.93617 13.4031 6.59788 15.6835H6.01889C4.63732 15.6835 3.57849 16.8707 3.77312 18.1905L5.03879 26.87C5.09146 27.2314 5.41075 27.5 5.78751 27.5H23.9347C24.3115 27.5 24.6309 27.2314 24.6835 26.87L25.949 18.1915C26.1442 16.8679 25.0824 15.6835 23.7034 15.6835ZM11.0804 7.62696C11.0804 5.60766 12.7765 3.96484 14.8611 3.96484C16.9457 3.96484 18.6417 5.60766 18.6417 7.62696C18.6417 9.64624 16.9457 11.2891 14.8611 11.2891C12.7765 11.2891 11.0804 9.64624 11.0804 7.62696ZM11.8366 12.7539H17.8856C19.7115 12.7539 21.239 14.0141 21.5904 15.6835H8.13187C8.48318 14.0141 10.0108 12.7539 11.8366 12.7539ZM24.4517 17.9856L23.2779 26.0352H6.44433L5.27036 17.9844C5.20514 17.5427 5.55739 17.1484 6.01889 17.1484C6.22789 17.1484 23.6159 17.1484 23.7034 17.1484C24.1644 17.1484 24.5172 17.5416 24.4517 17.9856Z" fill="#1F1D0D"/>
<path d="M14.8613 20.5547C13.3297 20.5547 12.0835 21.4893 12.0835 22.6381C12.0835 23.7869 13.3297 24.7214 14.8613 24.7214C16.393 24.7214 17.639 23.7869 17.639 22.6381C17.639 21.4893 16.393 20.5547 14.8613 20.5547ZM14.8613 23.3326C14.3508 23.3326 13.9353 23.0211 13.9353 22.6381C13.9353 22.2551 14.3508 21.9436 14.8613 21.9436C15.3719 21.9436 15.7873 22.2551 15.7873 22.6381C15.7873 23.0211 15.3719 23.3326 14.8613 23.3326Z" fill="#1F1D0D"/>
</svg>
