<svg width="30" height="30" viewBox="0 0 30 30" fill="none" xmlns="http://www.w3.org/2000/svg">
<path d="M21.25 23.0392H16.25L10.6875 26.7391C9.86249 27.2891 8.75 26.7017 8.75 25.7017V23.0392C5 23.0392 2.5 20.5392 2.5 16.7892V9.28906C2.5 5.53906 5 3.03906 8.75 3.03906H21.25C25 3.03906 27.5 5.53906 27.5 9.28906V16.7892C27.5 20.5392 25 23.0392 21.25 23.0392Z" fill="#A435F0" stroke="#1F1D0D" stroke-width="1.5" stroke-miterlimit="10" stroke-linecap="round" stroke-linejoin="round"/>
<path d="M14.9998 14.1992V13.9367C14.9998 13.0867 15.5248 12.6367 16.0498 12.2742C16.5623 11.9242 17.0748 11.4743 17.0748 10.6493C17.0748 9.49926 16.1498 8.57422 14.9998 8.57422C13.8498 8.57422 12.9248 9.49926 12.9248 10.6493" stroke="#1F1D0D" stroke-width="1.5" stroke-linecap="round" stroke-linejoin="round"/>
<path d="M14.9941 17.1875H15.0054" stroke="#1F1D0D" stroke-width="1.5" stroke-linecap="round" stroke-linejoin="round"/>
</svg>
