<svg width="30" height="30" viewBox="0 0 30 30" fill="none" xmlns="http://www.w3.org/2000/svg">
<g clip-path="url(#clip0_5757_27241)">
<path d="M20.2181 28.731H9.78516C10.9281 28.2515 11.6718 27.1331 11.6718 25.8936V24.9414H18.3313V25.8936C18.3313 27.1331 19.0751 28.2515 20.2181 28.731Z" fill="#1F1D0D"/>
<path d="M20.9156 28.7305H9.08199C8.80807 28.7305 8.58594 28.9525 8.58594 29.2265C8.58594 29.5004 8.80807 29.7225 9.08199 29.7225H20.9156C21.1895 29.7225 21.4116 29.5004 21.4116 29.2265C21.4117 28.9525 21.1896 28.7305 20.9156 28.7305Z" fill="#29281E"/>
<path d="M29.9974 5.2341V21.5581H0V5.2341C0 4.56678 0.543223 4.02344 1.21395 4.02344H28.7869C29.4541 4.02344 29.9974 4.56672 29.9974 5.2341Z" fill="#1F1D0D"/>
<path d="M0 21.5586V24.5329C0 25.2028 0.543047 25.7458 1.21295 25.7458H28.7847C29.4546 25.7458 29.9977 25.2028 29.9977 24.5329V21.5586H0Z" fill="#5B5B5B"/>
<path d="M0 21.5586V24.5329C0 25.2028 0.543047 25.7458 1.21295 25.7458H28.7847C29.4546 25.7458 29.9977 25.2028 29.9977 24.5329V21.5586H0Z" fill="#29281E"/>
<path opacity="0.08" d="M30.0005 5.23293V24.5311C30.0005 25.2013 29.4579 25.7438 28.7878 25.7438H25.9219C26.5921 25.7438 27.1346 25.2013 27.1346 24.5311V5.23293C27.1346 4.56596 26.5888 4.02344 25.9219 4.02344H28.7878C29.4548 4.02344 30.0005 4.56596 30.0005 5.23293Z" fill="black"/>
<path d="M13.5541 23.6514C13.5541 24.0743 13.211 24.4174 12.7855 24.4174C12.3627 24.4174 12.0195 24.0743 12.0195 23.6514C12.0195 23.2259 12.3627 22.8828 12.7855 22.8828C13.211 22.8828 13.5541 23.2259 13.5541 23.6514ZM15.7694 23.6514C15.7694 24.0743 15.4263 24.4174 15.0008 24.4174C14.578 24.4174 14.2348 24.0743 14.2348 23.6514C14.2348 23.2259 14.578 22.8828 15.0008 22.8828C15.4263 22.8828 15.7694 23.2259 15.7694 23.6514ZM17.9848 23.6514C17.9848 24.0743 17.6417 24.4174 17.2162 24.4174C16.7933 24.4174 16.4502 24.0743 16.4502 23.6514C16.4502 23.2259 16.7933 22.8828 17.2162 22.8828C17.6417 22.8828 17.9848 23.2259 17.9848 23.6514Z" fill="#F2F0F0"/>
<path d="M28.723 5.30078H1.27734V20.281H28.723V5.30078Z" fill="#A435F0"/>
<path d="M1.94918 22.7305V23.9733C1.94918 24.1976 1.7673 24.3795 1.54295 24.3795C1.31859 24.3795 1.13672 24.1976 1.13672 23.9733V22.7305C1.13672 22.5061 1.31859 22.3242 1.54295 22.3242C1.7673 22.3242 1.94918 22.5061 1.94918 22.7305Z" fill="white"/>
<path d="M15.0036 2.14248V18.1763C15.0036 17.1486 14.1701 16.3151 13.1424 16.3151H3.47979C3.08779 16.3151 2.77344 15.9973 2.77344 15.6087V0.987598C2.77344 0.599121 3.08773 0.28125 3.47979 0.28125H13.1424C14.1702 0.28125 15.0036 1.11475 15.0036 2.14248Z" fill="#FAFAFA"/>
<path opacity="0.08" d="M15.0041 2.14109V18.1745C15.0041 17.3862 14.5095 16.7097 13.8137 16.4384V2.14109C13.8137 1.11031 12.9807 0.277344 11.9531 0.277344H13.1403C14.168 0.277344 15.0041 1.11025 15.0041 2.14109Z" fill="black"/>
<path d="M13.0178 6.11047C13.0178 8.3201 11.2295 10.1084 9.02453 10.1084C6.81959 10.1084 5.03125 8.3201 5.03125 6.11047C5.03125 3.90553 6.81953 2.11719 9.02453 2.11719C11.2295 2.11719 13.0178 3.90553 13.0178 6.11047Z" fill="#EC1C24"/>
<path d="M27.2266 0.987539V15.6086C27.2266 15.9971 26.9123 16.315 26.5203 16.315H16.8577C15.8299 16.315 15 17.1485 15 18.1761V2.14242C15 1.11469 15.83 0.28125 16.8577 0.28125H26.5203C26.9123 0.281191 27.2266 0.599062 27.2266 0.987539Z" fill="#FAFAFA"/>
<path opacity="0.08" d="M27.2288 0.985801V15.6054C27.2288 15.9948 26.9129 16.3107 26.5203 16.3107H25.582C25.9746 16.3107 26.2905 15.9948 26.2905 15.6054V0.985801C26.2905 0.596445 25.9746 0.277344 25.582 0.277344H26.5203C26.9129 0.277344 27.2288 0.596445 27.2288 0.985801Z" fill="black"/>
<path d="M10.8283 6.11535L8.04688 8.14861V4.08203L10.8283 6.11535Z" fill="white"/>
<path d="M8.52711 12.443H4.75361C4.62424 12.443 4.51953 12.3383 4.51953 12.2089C4.51953 12.0795 4.62424 11.9748 4.75361 11.9748H8.52711C8.65648 11.9748 8.76119 12.0795 8.76119 12.2089C8.76119 12.3383 8.65648 12.443 8.52711 12.443ZM6.85707 14.113H4.75361C4.62424 14.113 4.51953 14.0083 4.51953 13.8789C4.51953 13.7496 4.62424 13.6449 4.75361 13.6449H6.85707C6.98645 13.6449 7.09115 13.7496 7.09115 13.8789C7.09115 14.0083 6.98645 14.113 6.85707 14.113ZM13.017 14.1021H8.20203C8.07266 14.1021 7.96795 13.9974 7.96795 13.868C7.96795 13.7386 8.07266 13.6339 8.20203 13.6339H13.017C13.1463 13.6339 13.2511 13.7386 13.2511 13.868C13.2511 13.9974 13.1463 14.1021 13.017 14.1021ZM13.017 12.443H9.76332C9.63395 12.443 9.52924 12.3383 9.52924 12.2089C9.52924 12.0795 9.63395 11.9748 9.76332 11.9748H13.017C13.1463 11.9748 13.2511 12.0795 13.2511 12.2089C13.2511 12.3383 13.1463 12.443 13.017 12.443ZM19.0868 13.2028H16.9834C16.854 13.2028 16.7493 13.0981 16.7493 12.9687C16.7493 12.8393 16.854 12.7346 16.9834 12.7346H19.0868C19.2162 12.7346 19.3209 12.8393 19.3209 12.9687C19.3209 13.0981 19.2162 13.2028 19.0868 13.2028ZM25.2463 13.1918H20.4318C20.3024 13.1918 20.1977 13.0871 20.1977 12.9577C20.1977 12.8284 20.3024 12.7237 20.4318 12.7237H25.2463C25.3756 12.7237 25.4803 12.8284 25.4803 12.9577C25.4803 13.0871 25.3757 13.1918 25.2463 13.1918ZM19.0868 9.87348H16.9834C16.854 9.87348 16.7493 9.76877 16.7493 9.63939C16.7493 9.51002 16.854 9.40531 16.9834 9.40531H19.0868C19.2162 9.40531 19.3209 9.51002 19.3209 9.63939C19.3209 9.76877 19.2162 9.87348 19.0868 9.87348ZM25.2463 9.86269H20.4318C20.3024 9.86269 20.1977 9.75799 20.1977 9.62861C20.1977 9.49924 20.3024 9.39453 20.4318 9.39453H25.2463C25.3756 9.39453 25.4803 9.49924 25.4803 9.62861C25.4803 9.75805 25.3757 9.86269 25.2463 9.86269Z" fill="#E5E3E5"/>
<path d="M19.0875 6.54238H16.9841C16.8547 6.54238 16.75 6.43768 16.75 6.3083C16.75 6.17893 16.8547 6.07422 16.9841 6.07422H19.0875C19.2169 6.07422 19.3216 6.17893 19.3216 6.3083C19.3216 6.43768 19.2169 6.54238 19.0875 6.54238Z" fill="#E5E3E5"/>
<path d="M25.2478 6.53066H20.4333C20.3039 6.53066 20.1992 6.42596 20.1992 6.29658C20.1992 6.16721 20.3039 6.0625 20.4333 6.0625H25.2478C25.3771 6.0625 25.4819 6.16721 25.4819 6.29658C25.4819 6.42602 25.3772 6.53066 25.2478 6.53066Z" fill="#E5E3E5"/>
<path d="M20.7576 11.5307H16.9841C16.8547 11.5307 16.75 11.426 16.75 11.2966C16.75 11.1672 16.8547 11.0625 16.9841 11.0625H20.7576C20.887 11.0625 20.9917 11.1672 20.9917 11.2966C20.9917 11.426 20.887 11.5307 20.7576 11.5307Z" fill="#E5E3E5"/>
<path d="M25.2451 11.5307H21.9919C21.8625 11.5307 21.7578 11.426 21.7578 11.2966C21.7578 11.1672 21.8625 11.0625 21.9919 11.0625H25.2451C25.3745 11.0625 25.4792 11.1672 25.4792 11.2966C25.4792 11.426 25.3746 11.5307 25.2451 11.5307Z" fill="#E5E3E5"/>
<path d="M20.7576 8.20254H16.9841C16.8547 8.20254 16.75 8.09783 16.75 7.96846C16.75 7.83908 16.8547 7.73438 16.9841 7.73438H20.7576C20.887 7.73438 20.9917 7.83908 20.9917 7.96846C20.9917 8.09783 20.887 8.20254 20.7576 8.20254Z" fill="#E5E3E5"/>
<path d="M25.2451 8.20254H21.9919C21.8625 8.20254 21.7578 8.09783 21.7578 7.96846C21.7578 7.83908 21.8625 7.73438 21.9919 7.73438H25.2451C25.3745 7.73438 25.4792 7.83908 25.4792 7.96846C25.4792 8.09783 25.3746 8.20254 25.2451 8.20254Z" fill="#E5E3E5"/>
<path d="M19.0875 3.21426H16.9841C16.8547 3.21426 16.75 3.10955 16.75 2.98018C16.75 2.8508 16.8547 2.74609 16.9841 2.74609H19.0875C19.2169 2.74609 19.3216 2.8508 19.3216 2.98018C19.3216 3.10955 19.2169 3.21426 19.0875 3.21426Z" fill="#E5E3E5"/>
<path d="M25.2478 3.20254H20.4333C20.3039 3.20254 20.1992 3.09783 20.1992 2.96846C20.1992 2.83908 20.3039 2.73438 20.4333 2.73438H25.2478C25.3771 2.73438 25.4819 2.83908 25.4819 2.96846C25.4819 3.09783 25.3772 3.20254 25.2478 3.20254Z" fill="#E5E3E5"/>
<path d="M20.7576 4.87441H16.9841C16.8547 4.87441 16.75 4.76971 16.75 4.64033C16.75 4.51096 16.8547 4.40625 16.9841 4.40625H20.7576C20.887 4.40625 20.9917 4.51096 20.9917 4.64033C20.9917 4.76971 20.887 4.87441 20.7576 4.87441Z" fill="#E5E3E5"/>
<path d="M25.2451 4.87441H21.9919C21.8625 4.87441 21.7578 4.76971 21.7578 4.64033C21.7578 4.51096 21.8625 4.40625 21.9919 4.40625H25.2451C25.3745 4.40625 25.4792 4.51096 25.4792 4.64033C25.4792 4.76971 25.3746 4.87441 25.2451 4.87441Z" fill="#E5E3E5"/>
</g>
<defs>
<clipPath id="clip0_5757_27241">
<rect width="30" height="30" fill="white"/>
</clipPath>
</defs>
</svg>
