<svg width="81" height="80" viewBox="0 0 81 80" fill="none" xmlns="http://www.w3.org/2000/svg">
<path d="M52.857 17.6439L42.857 7.64392C42.232 7.01902 41.3843 6.66797 40.5004 6.66797C39.6165 6.66797 38.7688 7.01902 38.1437 7.64392L28.1437 17.6439C27.5365 18.2726 27.2005 19.1146 27.2081 19.9886C27.2157 20.8626 27.5663 21.6986 28.1843 22.3167C28.8023 22.9347 29.6384 23.2852 30.5124 23.2928C31.3864 23.3004 32.2284 22.9645 32.857 22.3573L37.167 18.0473V56.6673C37.167 57.5513 37.5182 58.3992 38.1434 59.0243C38.7685 59.6494 39.6163 60.0006 40.5004 60.0006C41.3844 60.0006 42.2323 59.6494 42.8574 59.0243C43.4825 58.3992 43.8337 57.5513 43.8337 56.6673V18.0473L48.1437 22.3573C48.7724 22.9645 49.6144 23.3004 50.4884 23.2928C51.3624 23.2852 52.1984 22.9347 52.8164 22.3167C53.4345 21.6986 53.785 20.8626 53.7926 19.9886C53.8002 19.1146 53.4642 18.2726 52.857 17.6439Z" fill="#1F1D0D"/>
<path d="M60.5 30H43.8333V56.6667C43.8333 57.5507 43.4821 58.3986 42.857 59.0237C42.2319 59.6488 41.3841 60 40.5 60C39.6159 60 38.7681 59.6488 38.143 59.0237C37.5179 58.3986 37.1667 57.5507 37.1667 56.6667V30H20.5C17.8486 30.0026 15.3066 31.0571 13.4319 32.9319C11.5571 34.8066 10.5026 37.3486 10.5 40V63.3333C10.5026 65.9847 11.5571 68.5267 13.4319 70.4015C15.3066 72.2763 17.8486 73.3307 20.5 73.3333H60.5C63.1514 73.3307 65.6934 72.2763 67.5681 70.4015C69.4429 68.5267 70.4974 65.9847 70.5 63.3333V40C70.4974 37.3486 69.4429 34.8066 67.5681 32.9319C65.6934 31.0571 63.1514 30.0026 60.5 30Z" fill="#A435F0"/>
</svg>
